<?xml version="1.0" encoding="UTF-8"?>
<svg version="1.1" xmlns="http://www.w3.org/2000/svg" width="1024" height="1024">
<path d="M0 0 C337.92 0 675.84 0 1024 0 C1024 337.92 1024 675.84 1024 1024 C686.08 1024 348.16 1024 0 1024 C0 686.08 0 348.16 0 0 Z " fill="#F7F7F7" transform="translate(0,0)"/>
<path d="M0 0 C1.09248047 0.29003906 1.09248047 0.29003906 2.20703125 0.5859375 C14.65130775 4.02030342 27.93971922 9.02331487 36.75 18.875 C41.19717928 23.69924686 46.83527029 24.2117324 53.06640625 25.39111328 C82.92603567 31.0449692 116.46812851 38.6461784 137 63 C138.01500784 64.65756957 139.01699582 66.32325298 140 68 C139.07292236 68.0093457 138.14584473 68.01869141 137.19067383 68.02832031 C119.09492757 68.25455873 101.12787934 68.89180805 83.125 70.8125 C82.36965973 70.88932007 81.61431946 70.96614014 80.83609009 71.04528809 C57.20880078 73.33835927 57.20880078 73.33835927 38.25 86.125 C27.59467218 101.00784768 25.55989725 119.19089035 28.30908203 137.00250244 C29.56644118 144.03953079 31.2121792 150.99020018 32.90219116 157.93360901 C35.60524244 169.07997917 36.18659451 179.6626006 36.18530273 191.08447266 C36.18748204 193.23230036 36.20568333 195.3796068 36.22460938 197.52734375 C36.41028608 242.58208763 15.80171813 280.43756878 -15.04296875 312.03173828 C-22.96791811 320.00216514 -31.22675663 327.59051382 -40.01171875 334.60546875 C-42.32740567 336.46104533 -44.61643244 338.33739832 -46.89453125 340.23828125 C-59.22032316 350.5140454 -71.91277348 360.15396431 -85 369.4375 C-85.68191406 369.9217041 -86.36382813 370.4059082 -87.06640625 370.90478516 C-99.99901087 380 -99.99901087 380 -103 380 C-98.61751139 385.44961941 -94.21150633 390.83146925 -89.5 396 C-85.67829137 400.19729034 -82.08525811 404.53710231 -78.515625 408.94921875 C-75.57074831 412.52056766 -72.54276308 416.01208301 -69.5 419.5 C-55.54446432 435.50907119 -55.54446432 435.50907119 -52.38012695 440.61254883 C-49.63823192 443.36288133 -48.079089 443.57936488 -44.26324463 443.61634827 C-43.15067291 443.59162697 -43.15067291 443.59162697 -42.015625 443.56640625 C-41.24120056 443.57204086 -40.46677612 443.57767548 -39.66888428 443.58348083 C-37.19530665 443.59992096 -34.72351495 443.58442149 -32.25 443.5625 C-29.79092728 443.54583241 -27.33305534 443.5369329 -24.8739624 443.55223083 C-23.34681775 443.56141014 -21.81941731 443.55268681 -20.2925415 443.52259827 C-13.82490958 443.55533889 -8.98586498 445.68186156 -3.8984375 449.6315918 C-3.39570312 450.14890869 -2.89296875 450.66622559 -2.375 451.19921875 C-1.81425781 451.76833984 -1.25351562 452.33746094 -0.67578125 452.92382812 C-0.12277344 453.50583984 0.43023438 454.08785156 1 454.6875 C1.58394531 455.28111328 2.16789062 455.87472656 2.76953125 456.48632812 C7 460.83073222 7 460.83073222 7 462 C-58.34 462 -123.68 462 -191 462 C-187.3564782 457.62777384 -184.96952849 454.92556096 -180.5625 451.75 C-179.65628906 451.08484375 -178.75007812 450.4196875 -177.81640625 449.734375 C-171.30619275 445.72531149 -165.07782241 445.60579708 -157.625 445.375 C-156.60277344 445.33632813 -155.58054687 445.29765625 -154.52734375 445.2578125 C-152.01840403 445.16402036 -149.50946236 445.07832121 -147 445 C-147.35078613 444.57404541 -147.70157227 444.14809082 -148.06298828 443.70922852 C-149.13079226 442.4126094 -150.19858038 441.11597724 -151.26635742 439.81933594 C-152.52161479 438.29515373 -153.77698878 436.77106756 -155.0324707 435.24707031 C-158.24437792 431.34789562 -161.45468472 427.44743651 -164.66015625 423.54296875 C-170.94698098 415.88933023 -177.27030126 408.27253408 -183.6953125 400.734375 C-185.84083672 398.18883779 -187.93321782 395.60966966 -190 393 C-197.44581968 395.33809722 -204.53280311 398.26669625 -211.6875 401.375 C-213.5352351 402.17335078 -215.38297035 402.97170122 -217.23071289 403.77003479 C-219.16688433 404.60732273 -221.10226427 405.44642156 -223.03759766 406.28564453 C-226.35814985 407.72422539 -229.68312486 409.152239 -233.00990295 410.57635498 C-235.65977804 411.71111257 -238.30810904 412.84944532 -240.95620728 413.98834229 C-242.81052477 414.78480667 -244.66634496 415.57776967 -246.5222168 416.37060547 C-258.53016812 421.55089659 -270.13292711 427.16704993 -281.1875 434.1875 C-282.07767822 434.74501953 -282.96785645 435.30253906 -283.88500977 435.87695312 C-288.20027066 438.58378817 -292.49920042 441.3161406 -296.796875 444.05078125 C-333.17342092 467.18527254 -361.86055122 482.56348232 -406 482 C-404.31804225 477.91951077 -401.44818041 474.88764478 -398.5625 471.625 C-394.41848702 466.87269153 -390.41367162 462.05489102 -386.5625 457.0625 C-382.69632257 452.06333825 -378.66969437 447.2486484 -374.5 442.5 C-368.89410507 436.10914799 -363.61307497 429.52157242 -358.40771484 422.80322266 C-355.88617027 419.57323163 -353.31585652 416.38231745 -350.75 413.1875 C-346.45127681 407.82872338 -342.19617326 402.43966541 -338 397 C-345.70964488 400.84881284 -353.41651807 404.70289475 -361.11126709 408.5814209 C-364.3706847 410.22378932 -367.63180292 411.86276546 -370.89306641 413.50146484 C-372.55913718 414.33958072 -374.22449328 415.17911867 -375.88916016 416.02001953 C-397.04670879 426.70394245 -397.04670879 426.70394245 -402 428 C-402.66 427.67 -403.32 427.34 -404 427 C-402.96552734 425.87464844 -402.96552734 425.87464844 -401.91015625 424.7265625 C-400.96081529 423.69282055 -400.01160672 422.65895702 -399.0625 421.625 C-398.5574292 421.07481201 -398.0523584 420.52462402 -397.53198242 419.95776367 C-394.60276552 416.76238035 -391.69662058 413.54875159 -388.8125 410.3125 C-384.56662585 405.58291867 -380.2275273 400.94368459 -375.875 396.3125 C-375.20573486 395.59940674 -374.53646973 394.88631348 -373.84692383 394.15161133 C-370.68022577 390.7912171 -367.48767323 387.46827288 -364.2109375 384.21484375 C-361.94992583 381.96948474 -359.79363195 379.69786684 -357.75 377.25 C-354.81720434 373.84161585 -351.69928259 370.65599786 -348.5 367.5 C-344.71596635 363.7670933 -341.12620353 359.93786619 -337.67578125 355.89453125 C-335.23224171 353.13202151 -332.59182088 350.58273342 -329.96484375 347.99609375 C-328.07769256 346.07892823 -326.31314625 344.10424678 -324.5625 342.0625 C-321.99334729 339.07198284 -319.30682744 336.26883316 -316.5 333.5 C-313.79616607 330.83245914 -311.20744465 328.14540508 -308.75 325.25 C-305.44613227 321.38094232 -301.87318369 317.81625712 -298.265625 314.234375 C-297.66250488 313.63351074 -297.05938477 313.03264648 -296.43798828 312.41357422 C-294.95979805 310.9412382 -293.48005495 309.47046151 -292 308 C-297.20659674 309.59815264 -302.41287652 311.19733276 -307.61889648 312.79736328 C-309.38053379 313.33864403 -311.14224937 313.87967013 -312.90405273 314.42041016 C-314.61574813 314.94580623 -316.32732615 315.47158486 -318.03878784 315.9977417 C-319.75767377 316.52607484 -321.47685241 317.05345662 -323.19631958 317.57989502 C-327.61995421 318.93890543 -332.03042975 320.32886019 -336.42724609 321.77246094 C-337.73220284 322.19729263 -337.73220284 322.19729263 -339.06352234 322.63070679 C-340.72242042 323.17252314 -342.37898865 323.72154102 -344.03279114 324.27871704 C-349.66555859 326.11148047 -349.66555859 326.11148047 -353 325 C-352.50371094 324.5153125 -352.00742187 324.030625 -351.49609375 323.53125 C-347.50362708 319.59181419 -343.69650287 315.57453187 -340.0390625 311.32421875 C-337.45246655 308.37589578 -334.79163286 305.50085394 -332.125 302.625 C-327.80482249 297.96345699 -323.52631133 293.26893189 -319.28515625 288.53515625 C-316.66726871 285.63086734 -314.02246797 282.75229225 -311.375 279.875 C-308.39775181 276.63788971 -305.44046979 273.3886208 -302.5625 270.0625 C-298.93653017 265.87734446 -295.16356151 261.83239911 -291.39819336 257.77319336 C-288.76241007 254.92651445 -286.15541636 252.06644846 -283.625 249.125 C-279.59189795 244.45613802 -275.337526 239.99279499 -271.11816406 235.49316406 C-267.61551717 231.75114781 -264.17885118 227.97186254 -260.8359375 224.0859375 C-258.27508113 221.17636877 -255.63587983 218.34154434 -253 215.5 C-249.7883665 212.03716632 -246.58897047 208.57351485 -243.5 205 C-239.94182153 200.88639854 -236.2415788 196.90904725 -232.54516602 192.92016602 C-228.75098736 188.82287931 -225.00445872 184.68580657 -221.27734375 180.52734375 C-218.2347706 177.150766 -215.15881256 173.80519519 -212.08349609 170.45849609 C-209.22383388 167.34348908 -206.38476963 164.21139758 -203.5625 161.0625 C-202.83675781 160.26070312 -202.11101562 159.45890625 -201.36328125 158.6328125 C-199.63241045 156.7045366 -197.92644429 154.76305925 -196.23046875 152.8046875 C-181.69899838 136.24725279 -164.66134611 127.65388718 -142.5625 125.3125 C-140.37647359 125.18098772 -138.18843615 125.08218376 -136 125 C-135.17822266 124.96213379 -134.35644531 124.92426758 -133.50976562 124.88525391 C-110.70556301 123.93441013 -91.05458428 128.70977085 -73.328125 143.82421875 C-54.69147113 161.24136004 -44.63462108 181.57734063 -43 207 C-41.84812214 186.54776871 -47.3545608 166.73641424 -61.04760742 151.00610352 C-63.28577622 148.58079817 -65.62220552 146.28972802 -68 144 C-68.80179688 143.19046875 -69.60359375 142.3809375 -70.4296875 141.546875 C-86.10880908 126.43322993 -109.44959511 117.68723261 -131.04541016 117.86669922 C-138.01814231 118.10173513 -144.93676718 118.79465771 -151.875 119.5 C-153.35280393 119.64515015 -154.83066847 119.78968449 -156.30859375 119.93359375 C-159.87311958 120.28199953 -163.43676382 120.63861442 -167 121 C-165.27391531 117.45815163 -163.26070192 114.27605489 -161.0625 111 C-160.63557861 110.36320312 -160.20865723 109.72640625 -159.76879883 109.0703125 C-154.45772892 101.16479083 -149.10326719 93.28827497 -143.7487793 85.41210938 C-139.29229264 78.85626709 -134.84652165 72.2935006 -130.41796875 65.71875 C-129.02248431 63.64959334 -127.62672768 61.58062058 -126.23086548 59.51171875 C-125.34237394 58.19344999 -124.45494424 56.8744648 -123.56869507 55.5546875 C-104.48843961 27.1446123 -85.59383606 5.52567662 -51 -2 C-34.73092026 -5.06608499 -16.01871862 -4.30912899 0 0 Z " fill="#0F1B30" transform="translate(621,190)"/>
<path d="M0 0 C15.22125 -0.12375 15.22125 -0.12375 30.75 -0.25 C33.92979492 -0.28641602 37.10958984 -0.32283203 40.38574219 -0.36035156 C42.93944628 -0.37204695 45.4931579 -0.38223676 48.046875 -0.390625 C49.3457666 -0.41108887 50.6446582 -0.43155273 51.98291016 -0.45263672 C65.24061734 -0.45765288 76.44287623 2.8604713 86.19140625 12.0703125 C94.8200826 21.19160205 97.32990857 30.06590405 97.21484375 42.390625 C96.56240774 53.35155004 91.67862661 61.96130234 83.83984375 69.45703125 C80.78030061 72.02289015 77.11909799 75 73 75 C79.47842193 84.52365873 85.98020825 94.02888111 92.625 103.4375 C93.1209668 104.1399585 93.61693359 104.84241699 94.12792969 105.56616211 C95.99133604 108.19717583 97.84944964 110.80748773 99.8359375 113.34765625 C101 115 101 115 101 117 C76.62108027 119.99313708 76.62108027 119.99313708 69.54394531 115.40917969 C65.45888078 111.11462467 62.92505719 105.95896963 60.37255859 100.65673828 C58.11445842 96.28593678 55.17675666 92.44044541 52.25 88.5 C51.24925926 87.11887446 50.25395435 85.73378413 49.265625 84.34375 C48.85086914 83.76818359 48.43611328 83.19261719 48.00878906 82.59960938 C47 81 47 81 46 78 C38.74 78 31.48 78 24 78 C24 90.87 24 103.74 24 117 C16.08 117 8.16 117 0 117 C0 78.39 0 39.78 0 0 Z " fill="#0C1628" transform="translate(211,712)"/>
<path d="M0 0 C7.92 0 15.84 0 24 0 C32.24842087 8.59793023 32.24842087 8.59793023 34.32421875 12.40234375 C36.65584322 16.4757647 39.25285136 20.09678982 42.1875 23.75 C42.98542969 24.78640625 43.78335938 25.8228125 44.60546875 26.890625 C45.39566406 27.91671875 46.18585937 28.9428125 47 30 C49.08617229 32.71128275 51.17170585 35.42305677 53.25732422 38.13476562 C55.30233987 40.79352478 57.34794817 43.45182177 59.39453125 46.109375 C61.93164364 49.404752 64.46682973 52.70159219 67 56 C67.55220215 56.71897461 68.1044043 57.43794922 68.67333984 58.17871094 C70.45004304 60.49326132 72.22521648 62.8089774 74 65.125 C74.56436768 65.86008789 75.12873535 66.59517578 75.71020508 67.35253906 C76.2389624 68.0431543 76.76771973 68.73376953 77.3125 69.4453125 C77.78300781 70.05906738 78.25351562 70.67282227 78.73828125 71.30517578 C79.87618042 72.83367733 80.94298948 74.41448422 82 76 C82.33 50.92 82.66 25.84 83 0 C90.92 0 98.84 0 107 0 C107 38.61 107 77.22 107 117 C84 117 84 117 78.3125 112 C77.21985291 110.30540369 76.12924697 108.60758811 75.12207031 106.86083984 C73.51074939 104.18862746 71.61830269 101.76719735 69.71606445 99.29736328 C68.16347559 97.28130396 66.64337738 95.24403162 65.12890625 93.19921875 C61.99430413 88.98209343 58.81772309 84.79824168 55.625 80.625 C55.08987793 79.92503906 54.55475586 79.22507812 54.00341797 78.50390625 C51.16056106 74.79355058 48.30007286 71.09793029 45.41796875 67.41796875 C44.81581543 66.6482373 44.21366211 65.87850586 43.59326172 65.08544922 C42.46354866 63.64349301 41.33135408 62.20347476 40.19580078 60.76611328 C34.88556065 53.99053609 30.02368855 47.03316397 25 40 C24.67 65.41 24.34 90.82 24 117 C16.08 117 8.16 117 0 117 C0 78.39 0 39.78 0 0 Z " fill="#0C1628" transform="translate(709,712)"/>
<path d="M0 0 C8.58 0 17.16 0 26 0 C31.01533045 10.65168145 35.60285758 21.44475675 40.125 32.3125 C40.90303424 34.17725013 41.68127791 36.04191289 42.4597168 37.90649414 C44.53879664 42.88831812 46.61477282 47.87142955 48.69000244 52.8548584 C50.48512392 57.16472235 52.28188362 61.4739026 54.07861328 65.78309631 C57.17422553 73.20751343 60.26914181 80.63221998 63.36181641 88.05786133 C63.7656958 89.02727158 64.1695752 89.99668182 64.58569336 90.99546814 C65.36154009 92.8595743 66.13616185 94.72419088 66.90942383 96.58937073 C68.4832871 100.38270844 70.06375545 104.17035657 71.71630859 107.93017578 C72.41941162 109.54448486 72.41941162 109.54448486 73.13671875 111.19140625 C73.52947998 112.07127197 73.92224121 112.9511377 74.3269043 113.85766602 C75 116 75 116 74 119 C65.75 118.67 57.5 118.34 49 118 C47.515 114.596875 46.03 111.19375 44.5 107.6875 C44.03013672 106.61846436 43.56027344 105.54942871 43.07617188 104.44799805 C42.71072266 103.60277588 42.34527344 102.75755371 41.96875 101.88671875 C41.59169922 101.02264404 41.21464844 100.15856934 40.82617188 99.26831055 C40 97 40 97 40 94 C22.51 94.33 5.02 94.66 -13 95 C-16.3 102.59 -19.6 110.18 -23 118 C-31.58 118 -40.16 118 -49 118 C-48.31856413 114.59282065 -47.80831435 112.21814134 -46.50732422 109.15844727 C-46.20038132 108.43016724 -45.89343842 107.70188721 -45.57719421 106.95153809 C-45.07105339 105.77089783 -45.07105339 105.77089783 -44.5546875 104.56640625 C-44.19667557 103.7209021 -43.83866364 102.87539795 -43.46980286 102.00427246 C-42.27607917 99.18839523 -41.07557509 96.37546214 -39.875 93.5625 C-39.03321968 91.58081355 -38.19183782 89.5989578 -37.35083008 87.61694336 C-35.06264508 82.22803289 -32.76828278 76.84177258 -30.47259521 71.45605469 C-28.44313763 66.69309177 -26.41693851 61.92874513 -24.390625 57.16444397 C-16.28212601 38.10037406 -8.1706699 19.03752401 0 0 Z " fill="#0D1728" transform="translate(382,711)"/>
<path d="M0 0 C27.39 0 54.78 0 83 0 C83 7.26 83 14.52 83 22 C63.86 22 44.72 22 25 22 C25 30.25 25 38.5 25 47 C42.49 47 59.98 47 78 47 C78 54.26 78 61.52 78 69 C60.51 69 43.02 69 25 69 C25 77.58 25 86.16 25 95 C44.47 95 63.94 95 84 95 C84 102.26 84 109.52 84 117 C56.28 117 28.56 117 0 117 C0 78.39 0 39.78 0 0 Z " fill="#0C172A" transform="translate(596,712)"/>
<path d="M0 0 C9.24 0 18.48 0 28 0 C30.475 6.435 30.475 6.435 33 13 C38.99963874 28.54166253 45.16813129 44.01410833 51.37286377 59.47485352 C52.00777692 61.05716701 52.64218808 62.63968203 53.27606201 64.22241211 C54.77347132 67.95875012 56.28040854 71.69059628 57.80957031 75.4140625 C58.09144196 76.10516113 58.3733136 76.79625977 58.66372681 77.50830078 C59.42414505 79.37156102 60.18966799 81.23273569 60.95556641 83.09375 C62 86 62 86 62 89 C62.66 89 63.32 89 64 89 C64.10836182 88.16090088 64.21672363 87.32180176 64.32836914 86.45727539 C65.06519854 82.6643851 66.30471253 79.24841302 67.74609375 75.68359375 C68.02908325 74.96995163 68.31207275 74.25630951 68.6036377 73.52104187 C69.54256324 71.15754891 70.48996982 68.79755503 71.4375 66.4375 C72.09823779 64.77933333 72.75846512 63.12096317 73.41821289 61.46240234 C75.21579107 56.94824004 77.02113171 52.43721924 78.828125 47.92681885 C80.46647765 43.83494779 82.10076172 39.74145567 83.73521423 35.64802551 C88.48130893 23.76180356 93.23820561 11.87994063 98 0 C106.91 0 115.82 0 125 0 C112.41997791 31.65295882 99.43363987 63.14107444 86.4375 94.625 C86.01832306 95.6409726 85.59914612 96.65694519 85.16726685 97.70370483 C83.98607973 100.56585129 82.80380256 103.42754456 81.62109375 106.2890625 C81.26779999 107.14523666 80.91450623 108.00141083 80.55050659 108.88352966 C80.22760651 109.66398148 79.90470642 110.44443329 79.57202148 111.24853516 C79.29100082 111.92856598 79.00998016 112.6085968 78.72044373 113.30923462 C78.18835904 114.55795168 77.60702692 115.78594616 77 117 C67.43 117 57.86 117 48 117 C46.98421875 114.52113281 45.9684375 112.04226563 44.921875 109.48828125 C35.5828944 86.7012788 35.5828944 86.7012788 26.1875 63.9375 C25.7349585 62.84493896 25.28241699 61.75237793 24.81616211 60.62670898 C24.08220377 58.85494467 23.34824354 57.08318115 22.61421204 55.31144714 C18.78122758 46.05917078 14.95203415 36.80532758 11.12564087 27.55032349 C10.25361351 25.44166249 9.38120035 23.33316099 8.50839233 21.224823 C7.28198828 18.2622532 6.05686631 15.29915626 4.83203125 12.3359375 C4.45970367 11.43733505 4.0873761 10.5387326 3.70376587 9.61289978 C3.36171112 8.78464188 3.01965637 7.95638397 2.66723633 7.10302734 C2.36811844 6.37997406 2.06900055 5.65692078 1.76081848 4.91195679 C1.11773265 3.29586525 0.55002829 1.65008488 0 0 Z " fill="#0D1729" transform="translate(451,712)"/>
<path d="M0 0 C2.11328125 1.78515625 2.11328125 1.78515625 4.3125 4.0625 C5.10011719 4.87589844 5.88773437 5.68929687 6.69921875 6.52734375 C9.30753746 9.3305114 11.82778481 12.19552791 14.3203125 15.1015625 C16.49286935 17.55705699 18.81843603 19.83128437 21.15771484 22.12646484 C22.930399 23.92921838 24.5869598 25.78590002 26.234375 27.703125 C29.96371428 31.99225939 33.83756459 36.12820828 37.75 40.25 C43.4802201 46.30927567 49.15838883 52.40884733 54.765625 58.58203125 C56.22911985 60.1657783 57.73931633 61.70788281 59.296875 63.19921875 C61 65 61 65 61 67 C55.20211301 67.29866278 49.4087747 67.51526017 43.60498047 67.65917969 C41.6354367 67.71920511 39.66642058 67.80086405 37.69873047 67.90527344 C20.47956239 68.79546864 20.47956239 68.79546864 15.63452148 64.55883789 C12.97283308 61.65873903 10.99412717 58.38707593 9 55 C7.90333781 53.55478863 6.78759187 52.12364333 5.64453125 50.71484375 C4.69602774 49.45911038 3.75193606 48.20003122 2.8125 46.9375 C2.30332031 46.2554248 1.79414063 45.57334961 1.26953125 44.87060547 C-2.04645598 40.38831278 -5.15218015 35.82868545 -8.0625 31.0703125 C-9.69806763 28.4784654 -11.38823556 25.95374409 -13.125 23.4296875 C-13.67994141 22.61806152 -14.23488281 21.80643555 -14.80664062 20.97021484 C-15.92235777 19.34264477 -17.04589304 17.72040246 -18.17773438 16.10400391 C-18.94053711 14.98517822 -18.94053711 14.98517822 -19.71875 13.84375 C-20.18216797 13.17537109 -20.64558594 12.50699219 -21.12304688 11.81835938 C-22 10 -22 10 -21 7 C-18.41330449 5.2480892 -15.52190314 4.05424466 -12.6875 2.75 C-11.52831055 2.18539062 -11.52831055 2.18539062 -10.34570312 1.609375 C-9.59611328 1.25875 -8.84652344 0.908125 -8.07421875 0.546875 C-7.04687622 0.06492676 -7.04687622 0.06492676 -5.9987793 -0.42675781 C-3.57778165 -1.12109059 -2.3384468 -0.88216309 0 0 Z " fill="#F6F6F7" transform="translate(482,569)"/>
<path d="M0 0 C7.3940625 -0.061875 7.3940625 -0.061875 14.9375 -0.125 C16.47398193 -0.14320801 18.01046387 -0.16141602 19.59350586 -0.18017578 C37.43828352 -0.25227589 37.43828352 -0.25227589 43.4375 4.3125 C47.93111357 9.02531423 48.45293981 13.0825233 48.3203125 19.4296875 C47.70280622 24.38479885 45.63787578 28.30564574 42.1875 31.875 C36.68506056 34.704826 31.18846673 35.28740524 25.09765625 35.1953125 C24.13514954 35.19229126 24.13514954 35.19229126 23.15319824 35.18920898 C20.78955791 35.17885993 18.42602066 35.1509387 16.0625 35.125 C10.761875 35.08375 5.46125 35.0425 0 35 C0 23.45 0 11.9 0 0 Z " fill="#F2F2F3" transform="translate(235,734)"/>
<path d="M0 0 C0 3.3 0 6.6 0 10 C-2.01822917 10.68359375 -4.03645833 11.3671875 -6.0546875 12.05078125 C-8.33994905 12.96335547 -8.33994905 12.96335547 -10 16 C-10.31837783 18.38486173 -10.31837783 18.38486173 -10.30859375 21.04296875 C-10.33373047 22.03490234 -10.35886719 23.02683594 -10.38476562 24.04882812 C-10.41959276 26.12168778 -10.4509111 28.19460971 -10.47851562 30.26757812 C-10.65900443 37.08653328 -10.90011613 43.90011613 -16 49 C-15.61818882 51.92396855 -14.46707442 54.04346626 -12.9765625 56.546875 C-10.35068405 61.66579614 -10.40525789 66.59177542 -10.375 72.25 C-10.34943638 74.19283511 -10.31589738 76.1355857 -10.2734375 78.078125 C-10.26747559 78.92793945 -10.26151367 79.77775391 -10.25537109 80.65332031 C-9.97321995 83.24608973 -9.40885779 84.81236183 -8 87 C-5.08235 88.9451 -3.37462715 89.45276317 0 90 C0 93.3 0 96.6 0 100 C-8.23804979 99.50072426 -12.72442199 97.70091446 -18.3125 91.4375 C-21.47983129 87.70487074 -22.12234938 84.65484566 -22.28125 79.81640625 C-22.31863281 78.80642578 -22.35601562 77.79644531 -22.39453125 76.75585938 C-22.42933594 75.70205078 -22.46414063 74.64824219 -22.5 73.5625 C-22.56902201 71.480336 -22.64179055 69.39829198 -22.71875 67.31640625 C-22.74904297 66.39287354 -22.77933594 65.46934082 -22.81054688 64.51782227 C-22.98571169 62.18989084 -23.20791186 60.19582377 -24 58 C-26.32854463 56.80161791 -26.32854463 56.80161791 -29 56 C-30.34050052 55.34786461 -31.67661368 54.68620031 -33 54 C-33 51.69 -33 49.38 -33 47 C-31.27473958 46.12109375 -29.54947917 45.2421875 -27.82421875 44.36328125 C-25.20528655 42.40609209 -24.29563838 41.05817348 -23 38 C-22.56925111 34.19121336 -22.53362112 30.39290575 -22.5 26.5625 C-22.37852179 12.77472371 -22.37852179 12.77472371 -17.16796875 6.953125 C-11.48418502 2.0652952 -7.69423899 0 0 0 Z " fill="#01B8F9" transform="translate(471,359)"/>
<path d="M0 0 C8.16765712 0.43755306 13.14416378 2.90445539 18.69921875 8.92578125 C22.11079424 13.88358232 21.66750846 19.24238368 21.625 25.0625 C21.33304494 34.52939664 21.33304494 34.52939664 25 43 C26.98705621 44.51852102 26.98705621 44.51852102 29.1875 45.5 C31.32421875 46.69921875 31.32421875 46.69921875 33 48 C33.5 51.3125 33.5 51.3125 33 54 C32.45730469 54.23074219 31.91460938 54.46148437 31.35546875 54.69921875 C30.28232422 55.18841797 30.28232422 55.18841797 29.1875 55.6875 C28.47980469 56.00074219 27.77210938 56.31398438 27.04296875 56.63671875 C24.38063474 58.41330493 23.44090244 60.1499575 22 63 C21.56653113 65.69624267 21.56653113 65.69624267 21.62890625 68.52734375 C21.61150391 69.56697266 21.59410156 70.60660156 21.57617188 71.67773438 C21.56707373 73.84699238 21.56185131 76.01627018 21.56054688 78.18554688 C21.44807832 84.44888183 21.21715654 88.2451368 17 93 C11.5424573 98.22025823 7.54252724 100 0 100 C0 96.7 0 93.4 0 90 C2.01822917 89.34895833 4.03645833 88.69791667 6.0546875 88.046875 C8.5683741 86.69412799 8.96070133 85.63787013 10 83 C10.28409058 80.44036748 10.28409058 80.44036748 10.23828125 77.67578125 C10.25439453 76.64646484 10.27050781 75.61714844 10.28710938 74.55664062 C10.30388313 72.41347077 10.30930466 70.27017855 10.30273438 68.12695312 C10.44318093 60.84638486 11.82450093 55.99590611 16 50 C15.64558838 49.56969482 15.29117676 49.13938965 14.92602539 48.69604492 C10.34798247 42.43207361 10.35345188 36.88125399 10.4375 29.3125 C10.74531029 21.23539878 10.74531029 21.23539878 8.17578125 13.8125 C5.58344471 11.65299523 3.25478255 10.81369564 0 10 C0 6.7 0 3.4 0 0 Z " fill="#01B7F8" transform="translate(509,359)"/>
<path d="M0 0 C2.03320468 2.03320468 2.64905055 3.24795718 3.69580078 5.8671875 C4.01598175 6.66141113 4.33616272 7.45563477 4.66604614 8.27392578 C5.00570404 9.13228027 5.34536194 9.99063477 5.6953125 10.875 C6.04761932 11.75526855 6.39992615 12.63553711 6.76290894 13.54248047 C7.50669371 15.40428369 8.24793028 17.26710662 8.98681641 19.13085938 C10.12140258 21.99093159 11.26513573 24.84721648 12.41015625 27.703125 C13.1307553 29.51019865 13.85082541 31.31748333 14.5703125 33.125 C14.91401886 33.98335449 15.25772522 34.84170898 15.61184692 35.72607422 C15.92572357 36.52029785 16.23960022 37.31452148 16.56298828 38.1328125 C16.84119415 38.83293457 17.11940002 39.53305664 17.40603638 40.25439453 C18 42 18 42 18 44 C6.12 44 -5.76 44 -18 44 C-16.0411905 38.12357149 -14.04271179 32.42164878 -11.6796875 26.71875 C-11.22349533 25.60941101 -11.22349533 25.60941101 -10.75808716 24.47766113 C-10.12258054 22.93437254 -9.48559536 21.391692 -8.84716797 19.84960938 C-7.86655104 17.47957991 -6.89196998 15.10712987 -5.91796875 12.734375 C-5.29722901 11.22902064 -4.67614789 9.72380699 -4.0546875 8.21875 C-3.76302704 7.50843628 -3.47136658 6.79812256 -3.17086792 6.06628418 C-1.11521956 1.11521956 -1.11521956 1.11521956 0 0 Z " fill="#F6F6F7" transform="translate(395,740)"/>
<path d="M0 0 C4.0000179 1.60000716 7.50630179 3.29213682 11.25390625 5.37109375 C11.83663803 5.69408951 12.41936981 6.01708527 13.01976013 6.34986877 C14.24502364 7.03004399 15.46946314 7.71170546 16.69311523 8.39477539 C18.55794547 9.43495953 20.42621671 10.46874999 22.29492188 11.50195312 C23.48979526 12.16628563 24.68446375 12.83098683 25.87890625 13.49609375 C26.9572876 14.09607178 28.03566895 14.6960498 29.14672852 15.31420898 C30.08830811 15.87052002 31.0298877 16.42683105 32 17 C32.78109131 17.44996338 33.56218262 17.89992676 34.36694336 18.36352539 C36 20 36 20 36.390625 22.69921875 C36.34421875 23.68535156 36.2978125 24.67148437 36.25 25.6875 C36.21390625 26.68136719 36.1778125 27.67523437 36.140625 28.69921875 C36.09421875 29.45847656 36.0478125 30.21773437 36 31 C24.06071621 37.78288415 12.12921554 44.56103372 0 51 C0 46.71 0 42.42 0 38 C1.08539063 37.39671875 2.17078125 36.7934375 3.2890625 36.171875 C4.73444699 35.36471223 6.17975546 34.55741332 7.625 33.75 C8.33785156 33.35425781 9.05070312 32.95851563 9.78515625 32.55078125 C10.48769531 32.15761719 11.19023437 31.76445313 11.9140625 31.359375 C12.5529541 31.00327148 13.1918457 30.64716797 13.85009766 30.28027344 C16.63128523 28.62406771 19.30667212 26.79555192 22 25 C14.74 21.04 7.48 17.08 0 13 C0 8.71 0 4.42 0 0 Z " fill="#00B1F9" transform="translate(449,502)"/>
<path d="M0 0 C0 4.29 0 8.58 0 13 C-6.93 16.96 -13.86 20.92 -21 25 C-16.63075925 28.49997503 -16.63075925 28.49997503 -12.01171875 31.359375 C-11.30595703 31.75253906 -10.60019531 32.14570312 -9.87304688 32.55078125 C-9.15181641 32.94652344 -8.43058594 33.34226562 -7.6875 33.75 C-6.57665039 34.36681641 -6.57665039 34.36681641 -5.44335938 34.99609375 C-3.63120373 36.00154785 -1.8159158 37.001353 0 38 C0 42.29 0 46.58 0 51 C-12.17750926 44.64001053 -24.09813637 37.85986376 -36 31 C-36 27.37 -36 23.74 -36 20 C-33.96972656 18.83984375 -33.96972656 18.83984375 -31.8984375 17.65625 C-31.02155273 17.15512695 -30.14466797 16.65400391 -29.24121094 16.13769531 C-27.32535543 15.04301399 -25.40933892 13.9486144 -23.49316406 12.85449219 C-19.16618347 10.38339317 -14.84023364 7.91073126 -10.5234375 5.421875 C-9.87713379 5.04998047 -9.23083008 4.67808594 -8.56494141 4.29492188 C-6.84975465 3.30743206 -5.13577697 2.31784304 -3.421875 1.328125 C-1 0 -1 0 0 0 Z " fill="#01B4F9" transform="translate(400,502)"/>
<path d="M0 0 C23.25262424 -1.32661565 46.25744487 7.25492446 63.78173828 22.55566406 C72.17457987 30.14760271 78.74171307 37.91841825 84 48 C84.47824219 48.91265625 84.95648437 49.8253125 85.44921875 50.765625 C93.0664169 66.41176175 94.33036199 81.06224701 92 98 C91.67 98 91.34 98 91 98 C90.94392578 96.04320312 90.94392578 96.04320312 90.88671875 94.046875 C89.95153672 67.1558833 80.3841775 45.77582956 61 27 C47.05591966 15.01218542 28.24923917 8.69448907 10.08203125 8.37109375 C7 8 7 8 5.07421875 6.47265625 C4.54248047 5.74369141 4.54248047 5.74369141 4 5 C5.98 4.67 7.96 4.34 10 4 C7.70370006 2.85185003 5.92301914 2.69230191 3.375 2.4375 C2.55773437 2.35371094 1.74046875 2.26992188 0.8984375 2.18359375 C0.27195312 2.12300781 -0.35453125 2.06242187 -1 2 C-0.67 1.34 -0.34 0.68 0 0 Z " fill="#F5F5F6" transform="translate(486,307)"/>
<path d="M0 0 C18.93375 -0.0309375 18.93375 -0.0309375 38.25 -0.0625 C44.22528809 -0.07615601 44.22528809 -0.07615601 50.32128906 -0.09008789 C55.19091797 -0.09460449 55.19091797 -0.09460449 57.47161865 -0.09544373 C59.06227905 -0.09697789 60.65293829 -0.10049201 62.24359131 -0.10557556 C64.65492774 -0.11289576 67.06619318 -0.11390596 69.47753906 -0.11352539 C70.53799627 -0.11892255 70.53799627 -0.11892255 71.61987686 -0.12442875 C75.00215102 -0.1172834 77.68174409 0.17043602 81 1 C81 7.27 81 13.54 81 20 C78.69 20 76.38 20 74 20 C74 19.67 74 19.34 74 19 C75.98 19 77.96 19 80 19 C80 13.39 80 7.78 80 2 C54.59 2 29.18 2 3 2 C3 39.29 3 76.58 3 115 C29.4 115 55.8 115 83 115 C83 115.33 83 115.66 83 116 C55.61 116.33 28.22 116.66 0 117 C0 78.39 0 39.78 0 0 Z " fill="#1E2532" transform="translate(596,712)"/>
<path d="M0 0 C3.3 0 6.6 0 10 0 C7.93946803 7.02549708 5.69318099 13.95266657 3.27734375 20.86328125 C2.93119522 21.85829147 2.58504669 22.8533017 2.22840881 23.87846375 C1.50249258 25.96368256 0.77554571 28.04854285 0.04760742 30.13305664 C-1.06520476 33.32024667 -2.17445317 36.50866045 -3.28320312 39.69726562 C-3.99197906 41.73184346 -4.70095636 43.76635116 -5.41015625 45.80078125 C-5.74040298 46.74979813 -6.07064972 47.698815 -6.41090393 48.67658997 C-6.72140182 49.56488998 -7.03189972 50.45319 -7.35180664 51.3684082 C-7.75792931 52.53228813 -7.75792931 52.53228813 -8.17225647 53.71968079 C-9.06151257 56.16945864 -10.02012204 58.58520133 -11 61 C-14.3 61 -17.6 61 -21 61 C-18.89544397 53.78678408 -16.55062962 46.7040715 -14.0234375 39.62890625 C-13.46736313 38.06268776 -13.46736313 38.06268776 -12.90005493 36.46482849 C-11.72732433 33.16323376 -10.55126251 29.86283785 -9.375 26.5625 C-8.19235199 23.2369034 -7.01037859 19.91106765 -5.82852173 16.58518982 C-5.09572546 14.52382136 -4.36232779 12.46266658 -3.62826538 10.40174866 C-3.2976712 9.47325607 -2.96707703 8.54476349 -2.62646484 7.58813477 C-2.19036392 6.36429832 -2.19036392 6.36429832 -1.74545288 5.11573792 C-1.14670052 3.41636415 -0.56976974 1.70930922 0 0 Z " fill="#01B4F8" transform="translate(431,496)"/>
<path d="M0 0 C11.55 0 23.1 0 35 0 C28.13278008 9.15629322 28.13278008 9.15629322 23.5 12.125 C22.6028125 12.72570312 21.705625 13.32640625 20.78125 13.9453125 C18 15 18 15 14.94921875 14.390625 C12.07346119 13.03463865 9.79143895 11.60642066 7.3125 9.625 C6.56613281 9.03976563 5.81976562 8.45453125 5.05078125 7.8515625 C3.03085391 6.02785668 1.47874521 4.28149262 0 2 C0 1.34 0 0.68 0 0 Z " fill="#01B7F9" transform="translate(598,225)"/>
<path d="M0 0 C17.89414465 -1.02090207 33.16985523 3.91875482 49 12 C49.66 12.66 50.32 13.32 51 14 C50.34 14.33 49.68 14.66 49 15 C46.96855359 14.06553465 44.96466413 13.06775224 43 12 C43 12.66 43 13.32 43 14 C45.475 14.99 45.475 14.99 48 16 C47.67 16.66 47.34 17.32 47 18 C46.05253906 17.52820313 46.05253906 17.52820313 45.0859375 17.046875 C33.63433161 11.56858515 22.72680672 8.59618399 10.08203125 8.37109375 C7 8 7 8 5.07421875 6.47265625 C4.54248047 5.74369141 4.54248047 5.74369141 4 5 C5.98 4.67 7.96 4.34 10 4 C7.70370006 2.85185003 5.92301914 2.69230191 3.375 2.4375 C2.55773437 2.35371094 1.74046875 2.26992188 0.8984375 2.18359375 C0.27195312 2.12300781 -0.35453125 2.06242187 -1 2 C-0.67 1.34 -0.34 0.68 0 0 Z " fill="#EAEBED" transform="translate(486,307)"/>
<path d="M0 0 C17.49 0 34.98 0 53 0 C53 6.6 53 13.2 53 20 C52.01 20 51.02 20 50 20 C50 14.39 50 8.78 50 3 C33.83 3 17.66 3 1 3 C0.67 2.01 0.34 1.02 0 0 Z " fill="#151D2B" transform="translate(621,759)"/>
<path d="M0 0 C1.98 0 3.96 0 6 0 C6 7.26 6 14.52 6 22 C-13.14 22 -32.28 22 -52 22 C-52 30.58 -52 39.16 -52 48 C-52.33 48 -52.66 48 -53 48 C-53.02886338 43.52084672 -53.04675187 39.04171709 -53.0625 34.5625 C-53.07087891 33.28310547 -53.07925781 32.00371094 -53.08789062 30.68554688 C-53.09111328 29.47060547 -53.09433594 28.25566406 -53.09765625 27.00390625 C-53.10289307 25.87799072 -53.10812988 24.7520752 -53.11352539 23.59204102 C-53 21 -53 21 -52 20 C-50.2507128 19.90634994 -48.49763746 19.88255562 -46.74584961 19.88647461 C-45.62476303 19.88655014 -44.50367645 19.88662567 -43.34861755 19.88670349 C-41.51896202 19.89444542 -41.51896202 19.89444542 -39.65234375 19.90234375 C-37.7899984 19.90446617 -37.7899984 19.90446617 -35.89002991 19.90663147 C-32.58394509 19.91129409 -29.27792854 19.92028503 -25.97186279 19.93133545 C-22.6003885 19.94155173 -19.22890717 19.94612955 -15.85742188 19.95117188 C-9.23825982 19.96222605 -2.61913929 19.9795034 4 20 C4 13.73 4 7.46 4 1 C2.68 0.67 1.36 0.34 0 0 Z " fill="#040710" transform="translate(673,712)"/>
<path d="M0 0 C2 2 2 2 2.1953125 5.4765625 C2.18201493 6.85950968 2.15816232 8.24238654 2.125 9.625 C2.11597656 10.33140625 2.10695313 11.0378125 2.09765625 11.765625 C2.07407603 13.51056098 2.03820461 15.25532295 2 17 C2.33 17 2.66 17 3 17 C3 37.46 3 57.92 3 79 C-0.19296825 80.06432275 -2.20444941 80.03788336 -5.54296875 79.87890625 C-6.61611328 79.83056641 -7.68925781 79.78222656 -8.79492188 79.73242188 C-9.91447266 79.67634766 -11.03402344 79.62027344 -12.1875 79.5625 C-13.31865234 79.51029297 -14.44980469 79.45808594 -15.61523438 79.40429688 C-18.4104328 79.27456193 -21.2052794 79.13959359 -24 79 C-24 78.67 -24 78.34 -24 78 C-16.08 78 -8.16 78 0 78 C0 52.26 0 26.52 0 0 Z " fill="#BABDC2" transform="translate(733,751)"/>
<path d="M0 0 C1.65 0.66 3.3 1.32 5 2 C0.75150977 5.71210769 -3.83208436 8.18673495 -8.8125 10.75 C-9.60076172 11.16121094 -10.38902344 11.57242188 -11.20117188 11.99609375 C-13.13159136 13.00225178 -15.06545367 14.00179969 -17 15 C-17 18.96 -17 22.92 -17 27 C-11.06 23.7 -5.12 20.4 1 17 C1.33 17.66 1.66 18.32 2 19 C-1.24411612 21.80173665 -4.07919293 24.22931293 -8 26 C-8.78375 26.515625 -9.5675 27.03125 -10.375 27.5625 C-13.28462614 29.1558667 -15.72480174 29.61916299 -19 30 C-21.34939038 25.91032045 -22.4909922 23.18074428 -21.375 18.5 C-19.33926577 13.15049211 -15.16167085 11.11793999 -10.30078125 8.5078125 C-9.54152344 8.01023437 -8.78226562 7.51265625 -8 7 C-8 6.01 -8 5.02 -8 4 C-6.02 4 -4.04 4 -2 4 C-1.34 2.68 -0.68 1.36 0 0 Z " fill="#04111E" transform="translate(467,525)"/>
<path d="M0 0 C0.66 0.33 1.32 0.66 2 1 C-8.13510193 6.39524479 -18.30686068 11.71199201 -28.5625 16.875 C-29.45275879 17.32657471 -30.34301758 17.77814941 -31.26025391 18.2434082 C-43.49171432 24.36826126 -43.49171432 24.36826126 -49 26 C-49.66 25.67 -50.32 25.34 -51 25 C-49.23304141 23.03804598 -47.46168211 21.08040373 -45.6875 19.125 C-45.18798828 18.56941406 -44.68847656 18.01382813 -44.17382812 17.44140625 C-41.8912844 14.93211977 -39.83639832 12.89093222 -37 11 C-36.67 11.99 -36.34 12.98 -36 14 C-36.99 15.485 -36.99 15.485 -38 17 C-38 17.66 -38 18.32 -38 19 C-36.85934082 18.41919678 -35.71868164 17.83839355 -34.54345703 17.23999023 C-30.32452064 15.0944175 -26.1003603 12.95931457 -21.87451172 10.82739258 C-20.04363278 9.90187368 -18.21419781 8.97349265 -16.38623047 8.04223633 C-13.76380609 6.70686088 -11.1364204 5.38174675 -8.5078125 4.05859375 C-7.68693146 3.63783066 -6.86605042 3.21706757 -6.02029419 2.78355408 C-5.25965668 2.40308426 -4.49901917 2.02261444 -3.71533203 1.63061523 C-2.70939499 1.12098488 -2.70939499 1.12098488 -1.68313599 0.60105896 C-1.12770111 0.4027095 -0.57226624 0.20436005 0 0 Z " fill="#090D17" transform="translate(268,592)"/>
<path d="M0 0 C2.475 0.99 2.475 0.99 5 2 C5 5.63 5 9.26 5 13 C-19.91489362 27.14893617 -19.91489362 27.14893617 -31 33 C-31.73545554 28.47150059 -32.06500547 24.48972893 -31 20 C-27.39606738 16.73327745 -23.4802017 14.83341587 -19 13 C-18.67 13.66 -18.34 14.32 -18 15 C-18.66 15 -19.32 15 -20 15 C-20 15.66 -20 16.32 -20 17 C-21.65 17.33 -23.3 17.66 -25 18 C-25 18.66 -25 19.32 -25 20 C-25.99 20.33 -26.98 20.66 -28 21 C-28 23.64 -28 26.28 -28 29 C-24.49772162 27.10835403 -20.99861087 25.21091925 -17.5 23.3125 C-16.51773437 22.78205078 -15.53546875 22.25160156 -14.5234375 21.70507812 C-11.6714622 20.15550488 -8.83443175 18.5813869 -6 17 C-5.1853125 16.56324951 -4.370625 16.12649902 -3.53125 15.67651367 C0.70330507 13.3785302 0.70330507 13.3785302 3 9.32421875 C3 8.45410156 3 7.58398438 3 6.6875 C3.020625 5.80449219 3.04125 4.92148437 3.0625 4.01171875 C3.041875 3.34785156 3.02125 2.68398438 3 2 C2.01 1.67 1.02 1.34 0 1 C0 0.67 0 0.34 0 0 Z " fill="#04CDF3" transform="translate(480,520)"/>
<path d="M0 0 C0.33 0 0.66 0 1 0 C1.33 6.6 1.66 13.2 2 20 C-15.49 20 -32.98 20 -51 20 C-51 19.34 -51 18.68 -51 18 C-34.17 18 -17.34 18 0 18 C0 12.06 0 6.12 0 0 Z " fill="#01040F" transform="translate(672,761)"/>
<path d="M0 0 C2.80351576 1.76876358 4.89996724 3.91925722 7.2109375 6.29296875 C8.49677734 7.60587891 8.49677734 7.60587891 9.80859375 8.9453125 C10.96681641 10.13833984 10.96681641 10.13833984 12.1484375 11.35546875 C12.63521973 11.83411377 13.12200195 12.31275879 13.62353516 12.8059082 C15.12777859 14.33447578 16.50859713 15.91601848 17.88671875 17.55859375 C21.25533613 21.51726551 24.77862204 25.31656712 28.3359375 29.10546875 C28.95146484 29.76417969 29.56699219 30.42289063 30.20117188 31.1015625 C33.44673908 34.59587338 33.44673908 34.59587338 36.8449707 37.93847656 C38.1484375 39.35546875 38.1484375 39.35546875 38.1484375 41.35546875 C38.8084375 41.35546875 39.4684375 41.35546875 40.1484375 41.35546875 C41.875 43 41.875 43 43.7734375 45.16796875 C44.40507813 45.87566406 45.03671875 46.58335937 45.6875 47.3125 C47.1484375 49.35546875 47.1484375 49.35546875 47.1484375 52.35546875 C45.62424745 50.85887972 44.10428919 49.3579807 42.5859375 47.85546875 C41.73902344 47.02015625 40.89210938 46.18484375 40.01953125 45.32421875 C37.20762229 42.47762545 34.60529695 39.46612961 31.98510742 36.44384766 C28.27227005 32.22217932 24.37603051 28.16963869 20.49609375 24.10205078 C17.00341485 20.42946053 13.57697358 16.73054232 10.27734375 12.8828125 C9.66511963 12.18357666 9.05289551 11.48434082 8.42211914 10.76391602 C7.26683797 9.43943743 6.13065063 8.09797981 5.01733398 6.73803711 C2.10858614 3.33839183 2.10858614 3.33839183 -2.03515625 2.18847656 C-4.50875073 2.44059065 -4.50875073 2.44059065 -7.8515625 3.35546875 C-6.8515625 1.35546875 -6.8515625 1.35546875 -4.5390625 0.10546875 C-1.8515625 -0.64453125 -1.8515625 -0.64453125 0 0 Z " fill="#0B0E15" transform="translate(480.8515625,566.64453125)"/>
<path d="M0 0 C0.66 0 1.32 0 2 0 C1.95762207 0.64936523 1.91524414 1.29873047 1.87158203 1.96777344 C1.8840133 4.89182309 2.10962402 7.20703113 3 10 C5.88710885 12.85551464 9.25006638 14.47615524 12.875 16.25 C13.82850342 16.75305664 14.78200684 17.25611328 15.7644043 17.77441406 C17.64643806 18.76443472 19.53622333 19.73988338 21.43408203 20.69921875 C24.60592627 22.30717175 27.70622461 24.01930254 30.8125 25.75 C32.20703962 26.50240277 33.6022158 27.25364216 35 28 C35.04683582 24.86869093 34.91128148 22.00826443 34 19 C31.77389955 16.96119166 29.83671396 16.1862622 27 15 C27.66 14.67 28.32 14.34 29 14 C31.4750171 15.11431765 33.67883419 16.58150978 36 18 C36 22.29 36 26.58 36 31 C23.82249074 24.64001053 11.90186363 17.85986376 0 11 C0 7.37 0 3.74 0 0 Z " fill="#05D5F4" transform="translate(364,522)"/>
<path d="M0 0 C8.15211359 12.22817038 6.90944106 28.12162348 5 42 C4.67 42 4.34 42 4 42 C3.94392578 40.04320312 3.94392578 40.04320312 3.88671875 38.046875 C3.5132886 27.41683466 3.03744884 17.27500857 -1.1171875 7.32421875 C-2.11860633 4.68773996 -2.01678217 3.58817279 -1 1 C-0.67 0.67 -0.34 0.34 0 0 Z " fill="#EAECEE" transform="translate(573,363)"/>
<path d="M0 0 C0.66 0.66 1.32 1.32 2 2 C-0.6870781 4.69207267 -3.37997158 7.37769155 -6.0859375 10.05078125 C-11.49934287 15.41284768 -16.85903433 20.73898821 -21.73046875 26.609375 C-23 28 -23 28 -25 29 C-25.33 28.01 -25.66 27.02 -26 26 C-25.43152344 25.443125 -24.86304688 24.88625 -24.27734375 24.3125 C-19.85294998 19.93981033 -15.61317255 15.49432941 -11.5546875 10.78125 C-8.03062043 6.74362542 -4.23894814 3.27004571 0 0 Z " fill="#161E34" transform="translate(323,457)"/>
<path d="M0 0 C6.76197749 -0.43625661 12.74356969 0.40107385 19.3125 1.875 C20.47724854 2.13555176 20.47724854 2.13555176 21.66552734 2.40136719 C25.60644985 3.32253335 29.26203341 4.42250951 33 6 C33.9075 6.165 34.815 6.33 35.75 6.5 C36.86375 6.7475 36.86375 6.7475 38 7 C38.495 7.99 38.495 7.99 39 9 C32.07 8.67 25.14 8.34 18 8 C17.67 6.68 17.34 5.36 17 4 C11.39 3.01 5.78 2.02 0 1 C0 0.67 0 0.34 0 0 Z " fill="#020812" transform="translate(722,249)"/>
<path d="M0 0 C11.55 0 23.1 0 35 0 C32 3 32 3 28.99731445 3.2487793 C27.19846802 3.16237183 27.19846802 3.16237183 25.36328125 3.07421875 C24.06455078 3.01943359 22.76582031 2.96464844 21.42773438 2.90820312 C20.05597166 2.83497036 18.68422702 2.7613983 17.3125 2.6875 C15.92910079 2.62422838 14.54563651 2.56236272 13.16210938 2.50195312 C9.7738442 2.3484777 6.38691079 2.18058886 3 2 C3.66 3.65 4.32 5.3 5 7 C3.29115995 5.37660195 1.62553283 3.70680947 0 2 C0 1.34 0 0.68 0 0 Z " fill="#05B6DC" transform="translate(598,225)"/>
<path d="M0 0 C-3.56164658 1.62687518 -7.12446482 3.25116853 -10.6875 4.875 C-11.69490234 5.33519531 -12.70230469 5.79539062 -13.74023438 6.26953125 C-14.71669922 6.71425781 -15.69316406 7.15898438 -16.69921875 7.6171875 C-18.04246216 8.22989502 -18.04246216 8.22989502 -19.4128418 8.85498047 C-27.33039123 12.35911436 -27.33039123 12.35911436 -31 11 C-28.35261084 9.5393715 -27.10551666 9 -24 9 C-23.67 8.01 -23.34 7.02 -23 6 C-22.34 6 -21.68 6 -21 6 C-20.67 5.34 -20.34 4.68 -20 4 C-17.27734375 3.3671875 -17.27734375 3.3671875 -13.9375 2.875 C-12.28041016 2.62363281 -12.28041016 2.62363281 -10.58984375 2.3671875 C-9.30787109 2.18542969 -9.30787109 2.18542969 -8 2 C-8 1.34 -8 0.68 -8 0 C-4.71303767 -0.79953138 -3.28976808 -1.09658936 0 0 Z " fill="#0B0E14" transform="translate(414,589)"/>
<path d="M0 0 C2.97 0 5.94 0 9 0 C6.82252801 7.41978699 4.45545821 14.75154527 1.9375 22.0625 C1.58623047 23.10599609 1.23496094 24.14949219 0.87304688 25.22460938 C0.53208984 26.21396484 0.19113281 27.20332031 -0.16015625 28.22265625 C-0.46574463 29.11734619 -0.77133301 30.01203613 -1.08618164 30.93383789 C-2 33 -2 33 -4 34 C-2.43585764 27.15070292 -0.2191805 20.61837533 2.125 14 C2.49753906 12.93910156 2.87007813 11.87820313 3.25390625 10.78515625 C4.16608246 8.18896243 5.08151595 5.59396747 6 3 C4.02 2.34 2.04 1.68 0 1 C0 0.67 0 0.34 0 0 Z " fill="#03CEF2" transform="translate(432,496)"/>
<path d="M0 0 C0 3.49131943 -0.50880526 3.98662515 -2.66796875 6.58203125 C-3.51391602 7.60973633 -3.51391602 7.60973633 -4.37695312 8.65820312 C-5.27317383 9.72458008 -5.27317383 9.72458008 -6.1875 10.8125 C-6.76564453 11.51181641 -7.34378906 12.21113281 -7.93945312 12.93164062 C-9.61912653 14.96053427 -11.30826534 16.98115951 -13 19 C-13.97560125 20.17028887 -14.9509002 21.34082987 -15.92578125 22.51171875 C-16.61027344 23.33285156 -17.29476563 24.15398437 -18 25 C-18.66 24.34 -19.32 23.68 -20 23 C-13.50707026 15.17029061 -6.82767357 7.54078614 0 0 Z " fill="#030C1A" transform="translate(422,430)"/>
<path d="M0 0 C2 1 2 1 2 1 Z M-3 1 C-2.01 1.33 -1.02 1.66 0 2 C0 6.29 0 10.58 0 15 C-1.65 15.66 -3.3 16.32 -5 17 C-5.99 17.66 -6.98 18.32 -8 19 C-8.99 19 -9.98 19 -11 19 C-10.505 17.515 -10.505 17.515 -10 16 C-9.01 15.690625 -8.02 15.38125 -7 15.0625 C-3.72626873 13.31690202 -3.72626873 13.31690202 -3.3828125 10.140625 C-3.14613559 7.0853413 -3.00950075 4.06399091 -3 1 Z " fill="#050914" transform="translate(488,520)"/>
<path d="M0 0 C2.475 0.99 2.475 0.99 5 2 C1.14374856 5.33274503 -2.75963404 7.56499945 -7.3125 9.75 C-8.28026367 10.22373047 -8.28026367 10.22373047 -9.26757812 10.70703125 C-10.84234459 11.47691708 -12.4208004 12.23924891 -14 13 C-14 12.34 -14 11.68 -14 11 C-13.01 10.360625 -12.02 9.72125 -11 9.0625 C-10.01 8.381875 -9.02 7.70125 -8 7 C-8 6.01 -8 5.02 -8 4 C-6.02 4 -4.04 4 -2 4 C-1.34 2.68 -0.68 1.36 0 0 Z " fill="#0A101F" transform="translate(467,525)"/>
<path d="M0 0 C0.99 0.33 1.98 0.66 3 1 C-1.11619836 5.91935902 -5.40410362 10.52647956 -10 15 C-10.66 14.67 -11.32 14.34 -12 14 C-9.87753203 10.13284962 -7.47253855 7.25594323 -4.3125 4.1875 C-3.50425781 3.39730469 -2.69601562 2.60710938 -1.86328125 1.79296875 C-1.24839844 1.20128906 -0.63351562 0.60960937 0 0 Z " fill="#050C19" transform="translate(310,518)"/>
<path d="M0 0 C-2.31 2.31 -4.62 4.62 -7 7 C-7.99 6.67 -8.98 6.34 -10 6 C-10 5.34 -10 4.68 -10 4 C-11.1446875 4.495 -11.1446875 4.495 -12.3125 5 C-15 6 -15 6 -18 6 C-18 5.34 -18 4.68 -18 4 C-15.37764986 3.13683464 -12.75266548 2.28419221 -10.125 1.4375 C-9.37863281 1.19064453 -8.63226563 0.94378906 -7.86328125 0.68945312 C-2.2265625 -1.11328125 -2.2265625 -1.11328125 0 0 Z " fill="#E9EAEC" transform="translate(330,498)"/>
<path d="M0 0 C6.71234156 -0.47104151 12.4476947 0.71122402 18.85766602 2.57714844 C21.68947135 3.40038605 24.03073059 4 27 4 C28.6875 6 28.6875 6 30 8 C26.51440984 7.55312947 23.35330886 6.81542518 20.0625 5.625 C13.55464797 3.3550791 6.76044053 2.25589211 0 1 C0 0.67 0 0.34 0 0 Z " fill="#1F2C4B" transform="translate(728,248)"/>
<path d="M0 0 C0 0.66 0 1.32 0 2 C0.99 2.33 1.98 2.66 3 3 C2.26394531 3.06058594 1.52789063 3.12117187 0.76953125 3.18359375 C-0.69419922 3.30927734 -0.69419922 3.30927734 -2.1875 3.4375 C-3.15042969 3.51871094 -4.11335937 3.59992188 -5.10546875 3.68359375 C-7.98475091 3.95195779 -7.98475091 3.95195779 -10.71875 4.5625 C-13.17924747 5.03437623 -14.64682943 4.78439019 -17 4 C-17 3.34 -17 2.68 -17 2 C-5.47835991 -0.29612756 -5.47835991 -0.29612756 0 0 Z " fill="#202940" transform="translate(582,187)"/>
<path d="M0 0 C16.70642912 -0.39155693 16.70642912 -0.39155693 23 2 C23.33 2.99 23.66 3.98 24 5 C22.58249437 4.88490339 21.16598831 4.75746342 19.75 4.625 C18.96109375 4.55539062 18.1721875 4.48578125 17.359375 4.4140625 C15 4 15 4 13.0625 3 C10.43098794 1.72411537 8.1574691 1.58267636 5.25 1.375 C3.77273438 1.26285156 3.77273438 1.26285156 2.265625 1.1484375 C1.51796875 1.09945313 0.7703125 1.05046875 0 1 C0 0.67 0 0.34 0 0 Z " fill="#0C1220" transform="translate(493,315)"/>
<path d="M0 0 C0 3.6987636 -0.84352062 4.35773852 -3.25 7.0625 C-4.15492188 8.10083984 -4.15492188 8.10083984 -5.078125 9.16015625 C-6.97018869 10.97146113 -8.60605599 11.9778071 -11 13 C-11 10 -11 10 -9.35546875 8.02734375 C-8.64003906 7.33769531 -7.92460937 6.64804687 -7.1875 5.9375 C-6.47980469 5.24527344 -5.77210938 4.55304687 -5.04296875 3.83984375 C-3 2 -3 2 0 0 Z " fill="#070D1B" transform="translate(247,586)"/>
<path d="M0 0 C1.17046875 0.48210937 2.3409375 0.96421875 3.546875 1.4609375 C4.43890625 1.84507812 5.3309375 2.22921875 6.25 2.625 C6.25 3.615 6.25 4.605 6.25 5.625 C0.39340094 3.96346988 -5.2090134 2.15458084 -10.75 -0.375 C-6.76712649 -3.27342775 -4.28097812 -1.79801081 0 0 Z " fill="#1B253D" transform="translate(636.75,195.375)"/>
<path d="M0 0 C0.66 0.33 1.32 0.66 2 1 C1.01 1.66 0.02 2.32 -1 3 C-1.36558117 6.35503476 -1.36558117 6.35503476 -1.1875 10.125 C-1.16042969 11.40632812 -1.13335937 12.68765625 -1.10546875 14.0078125 C-1.07066406 14.99523437 -1.03585937 15.98265625 -1 17 C-1.99 17 -2.98 17 -4 17 C-5.96961064 12.957115 -6.12764299 10.44625521 -4.8125 6.25 C-3.61024817 2.76761538 -3.21813445 2.14542297 0 0 Z " fill="#07070F" transform="translate(451,537)"/>
<path d="M0 0 C7.26 0.33 14.52 0.66 22 1 C22 1.33 22 1.66 22 2 C12.62895894 2.88495497 3.40228594 3.1170409 -6 3 C-6 2.67 -6 2.34 -6 2 C-4.02 2 -2.04 2 0 2 C0 1.34 0 0.68 0 0 Z " fill="#04060C" transform="translate(715,256)"/>
<path d="M0 0 C6.6 0.33 13.2 0.66 20 1 C20 1.66 20 2.32 20 3 C13.07 3 6.14 3 -1 3 C-0.67 2.01 -0.34 1.02 0 0 Z " fill="#1E2A47" transform="translate(681,244)"/>
<path d="M0 0 C1.2077558 3.62326739 0.54311128 4.64146369 -1 8 C1.97 8.495 1.97 8.495 5 9 C5.66 7.68 6.32 6.36 7 5 C6.67 6.98 6.34 8.96 6 11 C2.7 11 -0.6 11 -4 11 C-3.5247412 9.35303396 -3.04468109 7.70745272 -2.5625 6.0625 C-2.29566406 5.14597656 -2.02882813 4.22945312 -1.75390625 3.28515625 C-1 1 -1 1 0 0 Z " fill="#04C3EF" transform="translate(414,546)"/>
<path d="M0 0 C0.33 0.66 0.66 1.32 1 2 C2.6630584 2.67561748 4.33094605 3.33933281 6 4 C7.48571463 4.84272579 8.96435477 5.69798982 10.4375 6.5625 C13.96403019 8.56755061 16.89616253 9.68432019 21 10 C21 10.99 21 11.98 21 13 C17.42635641 12.42590968 14.71615696 11.50054964 11.57421875 9.71484375 C10.77822266 9.26689453 9.98222656 8.81894531 9.16210938 8.35742188 C8.34548828 7.88884766 7.52886719 7.42027344 6.6875 6.9375 C5.85154297 6.46505859 5.01558594 5.99261719 4.15429688 5.50585938 C2.09930735 4.34332244 0.04812263 3.17457909 -2 2 C-1.34 1.34 -0.68 0.68 0 0 Z " fill="#0F0D1C" transform="translate(379,526)"/>
<path d="M0 0 C1 4 1 4 0 6 C-0.66 6 -1.32 6 -2 6 C-2.33 7.32 -2.66 8.64 -3 10 C-4.32 10.33 -5.64 10.66 -7 11 C-7.33 10.01 -7.66 9.02 -8 8 C-5.36 5.36 -2.72 2.72 0 0 Z " fill="#1F273A" transform="translate(434,333)"/>
<path d="M0 0 C4.23429756 1.31061591 8.07407404 2.94356259 12 5 C11.34 5.66 10.68 6.32 10 7 C8.02 6.01 6.04 5.02 4 4 C4 4.66 4 5.32 4 6 C6.475 6.99 6.475 6.99 9 8 C8.67 8.66 8.34 9.32 8 10 C6.02 9.01 4.04 8.02 2 7 C2 5.68 2 4.36 2 3 C1.34 2.67 0.68 2.34 0 2 C0 1.34 0 0.68 0 0 Z " fill="#E0E2E5" transform="translate(525,315)"/>
<path d="M0 0 C3.96 1.98 7.92 3.96 12 6 C12 6.99 12 7.98 12 9 C11.34 9 10.68 9 10 9 C9.67 8.34 9.34 7.68 9 7 C8.01 6.67 7.02 6.34 6 6 C5.67 6.99 5.34 7.98 5 9 C3 7 3 7 2.5 4.9375 C2.335 4.298125 2.17 3.65875 2 3 C1.34 2.67 0.68 2.34 0 2 C0 1.34 0 0.68 0 0 Z " fill="#0B101F" transform="translate(382,543)"/>
<path d="M0 0 C0 0.66 0 1.32 0 2 C0.99 2.33 1.98 2.66 3 3 C3 3.99 3 4.98 3 6 C-2.49152542 5.38983051 -2.49152542 5.38983051 -4.875 3.5625 C-6 2 -6 2 -6 0 C-3 -1 -3 -1 0 0 Z " fill="#F5F5F7" transform="translate(525,315)"/>
<path d="M0 0 C1.4216868 4.26506039 -0.34613318 7.20037743 -1.9375 11.1875 C-2.22818359 11.93708984 -2.51886719 12.68667969 -2.81835938 13.45898438 C-3.53725036 15.30924477 -4.26754653 17.15506648 -5 19 C-5.33 19 -5.66 19 -6 19 C-6.625 15.625 -6.625 15.625 -7 12 C-5.66666667 10.66666667 -4.33333333 9.33333333 -3 8 C-2.11221308 6.03511169 -2.11221308 6.03511169 -1.375 3.875 C-0.98441406 2.78832031 -0.98441406 2.78832031 -0.5859375 1.6796875 C-0.29589844 0.84824219 -0.29589844 0.84824219 0 0 Z " fill="#0C0C18" transform="translate(415,538)"/>
<path d="M0 0 C4.07866166 0.59218318 7.00730627 1.94303117 10.5625 4 C14.25150092 6.17791694 14.25150092 6.17791694 18.27734375 7.5 C18.84582031 7.665 19.41429687 7.83 20 8 C20.33 8.99 20.66 9.98 21 11 C18.00843299 10.36355878 15.58061047 9.38047987 12.890625 7.93359375 C12.13652344 7.53076172 11.38242187 7.12792969 10.60546875 6.71289062 C9.43951172 6.08157227 9.43951172 6.08157227 8.25 5.4375 C7.45722656 5.01275391 6.66445313 4.58800781 5.84765625 4.15039062 C3.89628933 3.10417583 1.94720186 2.05394047 0 1 C0 0.67 0 0.34 0 0 Z " fill="#02CAF1" transform="translate(451,515)"/>
<path d="M0 0 C0.66 0.33 1.32 0.66 2 1 C-1.10299675 4.64264836 -4.65181254 6.61385354 -8.8125 8.82421875 C-10.5636674 9.76547123 -12.26168596 10.80533146 -13.9375 11.875 C-14.618125 12.24625 -15.29875 12.6175 -16 13 C-16.66 12.67 -17.32 12.34 -18 12 C-12.06 8.04 -6.12 4.08 0 0 Z " fill="#020B18" transform="translate(379,469)"/>
<path d="M0 0 C-2.79738782 1.5067748 -5.40322432 2.48224115 -8.5 3.1875 C-9.2528125 3.36667969 -10.005625 3.54585938 -10.78125 3.73046875 C-13.14833379 4.01801942 -14.74544015 3.72248395 -17 3 C-16.34 3 -15.68 3 -15 3 C-15 2.34 -15 1.68 -15 1 C-10.05183286 -1.80396138 -5.38317715 -0.77350507 0 0 Z " fill="#060A13" transform="translate(691,261)"/>
<path d="M0 0 C0.33 0 0.66 0 1 0 C1 1.98 1 3.96 1 6 C1.66 6.33 2.32 6.66 3 7 C2.071875 7.309375 2.071875 7.309375 1.125 7.625 C-1.84653645 9.54775888 -2.13024659 11.66594527 -3 15 C-3.66 15 -4.32 15 -5 15 C-4.54705135 13.24859857 -4.08741252 11.49892656 -3.625 9.75 C-3.36976563 8.77546875 -3.11453125 7.8009375 -2.8515625 6.796875 C-2.10401491 4.34162697 -1.22876183 2.24382595 0 0 Z " fill="#090D1A" transform="translate(437,508)"/>
<path d="M0 0 C1.65 0 3.3 0 5 0 C5 0.66 5 1.32 5 2 C3.10435574 2.79211929 1.20847629 3.58367576 -0.6875 4.375 C-1.74324219 4.81585938 -2.79898438 5.25671875 -3.88671875 5.7109375 C-6.58356657 6.82757462 -9.28716264 7.92291801 -12 9 C-11 6 -11 6 -9.2578125 4.83203125 C-8.20207031 4.32736328 -8.20207031 4.32736328 -7.125 3.8125 C-6.42632813 3.46832031 -5.72765625 3.12414062 -5.0078125 2.76953125 C-3 2 -3 2 0 2 C0 1.34 0 0.68 0 0 Z " fill="#E8EAEC" transform="translate(553,190)"/>
<path d="M0 0 C0.66 0.99 1.32 1.98 2 3 C1.01 4.485 1.01 4.485 0 6 C-0.33 6.99 -0.66 7.98 -1 9 C-3.97 8.505 -3.97 8.505 -7 8 C-6.02133662 6.85373678 -5.04205413 5.70800212 -4.0625 4.5625 C-3.51722656 3.92441406 -2.97195312 3.28632812 -2.41015625 2.62890625 C-1.63204305 1.73008851 -0.84063472 0.84063472 0 0 Z " fill="#050C19" transform="translate(230,603)"/>
<path d="M0 0 C4.29 0 8.58 0 13 0 C12.67 0.99 12.34 1.98 12 3 C7.48281619 4.36884358 4.41225737 3.47075246 0 2 C0 1.34 0 0.68 0 0 Z " fill="#080913" transform="translate(410,557)"/>
<path d="M0 0 C1.35015859 4.05047576 0.62084998 6.7920168 0 11 C-0.99 11.33 -1.98 11.66 -3 12 C-3.33 12.66 -3.66 13.32 -4 14 C-3.46148032 8.72250715 -2.22656164 4.74354436 0 0 Z " fill="#080C19" transform="translate(431,525)"/>
<path d="M0 0 C0.99 0.33 1.98 0.66 3 1 C1.625 3.5 1.625 3.5 0 6 C-0.66 6 -1.32 6 -2 6 C-2 6.66 -2 7.32 -2 8 C-3.32 8.33 -4.64 8.66 -6 9 C-4.68775452 5.06326356 -3.08089673 2.77280706 0 0 Z " fill="#0B1221" transform="translate(224,660)"/>
<path d="M0 0 C0.66 0.33 1.32 0.66 2 1 C1.9375 2.8125 1.9375 2.8125 1 5 C-4.77077364 8.15759312 -4.77077364 8.15759312 -8.4375 7.6875 C-8.953125 7.460625 -9.46875 7.23375 -10 7 C-7.35261084 5.5393715 -6.10551666 5 -3 5 C-2.67 4.01 -2.34 3.02 -2 2 C-1.34 2 -0.68 2 0 2 C0 1.34 0 0.68 0 0 Z " fill="#0E131E" transform="translate(393,593)"/>
<path d="M0 0 C0 3.24792684 -0.6507329 5.07658794 -2 8 C-2.66 8.66 -3.32 9.32 -4 10 C-4.99 10 -5.98 10 -7 10 C-5.33248852 6.05860922 -2.77289351 3.2107188 0 0 Z " fill="#0F1523" transform="translate(284,586)"/>
<path d="M0 0 C0.66 0.33 1.32 0.66 2 1 C0.40320196 2.3421492 -1.20270197 3.67347115 -2.8125 5 C-4.15248047 6.11375 -4.15248047 6.11375 -5.51953125 7.25 C-8 9 -8 9 -11 9 C-10.67 8.01 -10.34 7.02 -10 6 C-9.34 6 -8.68 6 -8 6 C-7.54625 5.54625 -7.0925 5.0925 -6.625 4.625 C-4.87259851 2.87259851 -3.22981582 2.04058072 -1 1 C-0.67 0.67 -0.34 0.34 0 0 Z " fill="#0B0F18" transform="translate(558,540)"/>
<path d="M0 0 C0.66 0.33 1.32 0.66 2 1 C1.57847656 1.47050781 1.15695312 1.94101563 0.72265625 2.42578125 C0.17480469 3.04839844 -0.37304688 3.67101562 -0.9375 4.3125 C-1.48277344 4.92738281 -2.02804687 5.54226562 -2.58984375 6.17578125 C-4.20081559 8.05241958 -4.20081559 8.05241958 -5 11 C-5.99 10.67 -6.98 10.34 -8 10 C-6.23925651 4.98865315 -4.38264513 2.92176342 0 0 Z " fill="#1A243B" transform="translate(517,221)"/>
<path d="M0 0 C0.66 0 1.32 0 2 0 C2.16852247 1.60397277 2.33474886 3.2081869 2.5 4.8125 C2.5928125 5.70582031 2.685625 6.59914063 2.78125 7.51953125 C3 10 3 10 3 13 C2.01 12.34 1.02 11.68 0 11 C-0.29296875 8.3984375 -0.29296875 8.3984375 -0.1875 5.375 C-0.16042969 4.37210938 -0.13335937 3.36921875 -0.10546875 2.3359375 C-0.07066406 1.56507813 -0.03585937 0.79421875 0 0 Z " fill="#03BFEB" transform="translate(364,522)"/>
<path d="M0 0 C2.0625 2.1875 2.0625 2.1875 4 5 C3.75 7.8125 3.75 7.8125 3 10 C2.34 10 1.68 10 1 10 C-0.83691257 6.21812119 -1.15837626 4.05431692 0 0 Z " fill="#EFEFF1" transform="translate(565,348)"/>
<path d="M0 0 C0 0.99 0 1.98 0 3 C-1.63978318 4.04349839 -3.31464976 5.03182008 -5 6 C-7.39553903 7.93028972 -9.70267994 9.95425966 -12 12 C-10.53033642 8.60140297 -8.61962486 6.35036291 -6 3.75 C-5.29875 3.04359375 -4.5975 2.3371875 -3.875 1.609375 C-2 0 -2 0 0 0 Z " fill="#02050C" transform="translate(296,535)"/>
<path d="M0 0 C0 0.66 0 1.32 0 2 C-5.95703125 3.7578125 -5.95703125 3.7578125 -8 4 C-8.99 3.34 -9.98 2.68 -11 2 C-3.57142857 -1.57142857 -3.57142857 -1.57142857 0 0 Z " fill="#182137" transform="translate(325,497)"/>
<path d="M0 0 C0.66 0.33 1.32 0.66 2 1 C1.01 1.99 0.02 2.98 -1 4 C-1.66 3.67 -2.32 3.34 -3 3 C-2.01 2.01 -1.02 1.02 0 0 Z M-5 4 C-4.34 4.33 -3.68 4.66 -3 5 C-3.99 5.99 -4.98 6.98 -6 8 C-6 5 -6 5 -5 4 Z M-9 7 C-8.34 7.33 -7.68 7.66 -7 8 C-7.99 8 -8.98 8 -10 8 C-9.67 7.67 -9.34 7.34 -9 7 Z M-12 9 C-11.34 9.33 -10.68 9.66 -10 10 C-10.99 10 -11.98 10 -13 10 C-12.67 9.67 -12.34 9.34 -12 9 Z " fill="#EBECED" transform="translate(555,544)"/>
<path d="M0 0 C5.53846154 0.61538462 5.53846154 0.61538462 7.875 2.5625 C8.431875 3.2740625 8.431875 3.2740625 9 4 C8.67 4.99 8.34 5.98 8 7 C6.68 6.34 5.36 5.68 4 5 C4 4.01 4 3.02 4 2 C2.68 2 1.36 2 0 2 C0 1.34 0 0.68 0 0 Z " fill="#0E1120" transform="translate(509,369)"/>
<path d="M0 0 C0.33 0 0.66 0 1 0 C1.68041782 5.27323808 -0.75213663 9.39388711 -3 14 C-4.37095624 10.30962722 -3.60010967 8.29116165 -2.0625 4.75 C-1.68222656 3.85796875 -1.30195313 2.9659375 -0.91015625 2.046875 C-0.60980469 1.37140625 -0.30945313 0.6959375 0 0 Z " fill="#060A15" transform="translate(425,542)"/>
<path d="M0 0 C0.99 0.66 1.98 1.32 3 2 C0.16569547 5.2542015 -1.68607774 6.5206753 -6 7 C-5.34 6.67 -4.68 6.34 -4 6 C-4 5.01 -4 4.02 -4 3 C-2 1.3125 -2 1.3125 0 0 Z " fill="#162238" transform="translate(625,233)"/>
<path d="M0 0 C0.33 0.99 0.66 1.98 1 3 C-0.81325551 2.88648483 -2.62563357 2.75887039 -4.4375 2.625 C-5.95150391 2.52058594 -5.95150391 2.52058594 -7.49609375 2.4140625 C-8.32238281 2.27742187 -9.14867187 2.14078125 -10 2 C-10.33 1.34 -10.66 0.68 -11 0 C-7.01803543 -1.05404945 -4.01804691 -0.84098656 0 0 Z " fill="#1B243C" transform="translate(692,219)"/>
<path d="M0 0 C0 3 0 3 -1.53125 4.60546875 C-2.1809375 5.12753906 -2.830625 5.64960938 -3.5 6.1875 C-4.1496875 6.71730469 -4.799375 7.24710937 -5.46875 7.79296875 C-5.9740625 8.19128906 -6.479375 8.58960938 -7 9 C-7.33 8.01 -7.66 7.02 -8 6 C-5.33333333 4 -2.66666667 2 0 0 Z " fill="#1C273D" transform="translate(305,477)"/>
<path d="M0 0 C0.99 0.33 1.98 0.66 3 1 C3.33 3.97 3.66 6.94 4 10 C3.01 10.33 2.02 10.66 1 11 C1.33 8.69 1.66 6.38 2 4 C1.34 4 0.68 4 0 4 C0 2.68 0 1.36 0 0 Z " fill="#21293B" transform="translate(652,351)"/>
<path d="M0 0 C0.33 0.99 0.66 1.98 1 3 C-1.97 3 -4.94 3 -8 3 C-8 2.34 -8 1.68 -8 1 C-5.29120665 -0.35439668 -2.99066732 -0.06501451 0 0 Z " fill="#EEEFF1" transform="translate(236,671)"/>
<path d="M0 0 C0.66 0.33 1.32 0.66 2 1 C0.88200014 2.33920838 -0.24461897 3.67122556 -1.375 5 C-2.00148438 5.7425 -2.62796875 6.485 -3.2734375 7.25 C-4.12808594 8.11625 -4.12808594 8.11625 -5 9 C-5.66 9 -6.32 9 -7 9 C-7.33 8.01 -7.66 7.02 -8 6 C-7.236875 5.566875 -6.47375 5.13375 -5.6875 4.6875 C-3.41906232 3.26313215 -1.7800277 1.96739903 0 0 Z " fill="#1F2B46" transform="translate(364,412)"/>
<path d="M0 0 C0 3 0 3 -1.53125 4.60546875 C-2.1809375 5.12753906 -2.830625 5.64960938 -3.5 6.1875 C-4.1496875 6.71730469 -4.799375 7.24710937 -5.46875 7.79296875 C-5.9740625 8.19128906 -6.479375 8.58960938 -7 9 C-7.33 8.01 -7.66 7.02 -8 6 C-5.36 4.02 -2.72 2.04 0 0 Z " fill="#1D283E" transform="translate(423,347)"/>
<path d="M0 0 C0.99 0.33 1.98 0.66 3 1 C2.2265625 1.37125 2.2265625 1.37125 1.4375 1.75 C0.0182019 2.47784518 -1.38831876 3.23437502 -2.75390625 4.05859375 C-4.47048188 5.09427299 -6.23377351 6.05147096 -8 7 C-8.66 6.67 -9.32 6.34 -10 6 C-8.70903219 5.18639005 -7.41720125 4.37414954 -6.125 3.5625 C-5.04605469 2.88380859 -5.04605469 2.88380859 -3.9453125 2.19140625 C-2 1 -2 1 0 0 Z " fill="#030C1A" transform="translate(635,254)"/>
<path d="M0 0 C2.9375 1.625 2.9375 1.625 6 4 C6.875 7.25 6.875 7.25 7 10 C3.60582235 6.87378374 1.3937282 4.43458973 0 0 Z " fill="#ECEDEE" transform="translate(785,779)"/>
<path d="M0 0 C3.48331435 3.01887244 4.79157144 5.56909529 6 10 C5.01 10 4.02 10 3 10 C0 3.375 0 3.375 0 0 Z " fill="#ECEDEF" transform="translate(417,731)"/>
<path d="M0 0 C0.33 0.66 0.66 1.32 1 2 C-1.97 4.475 -1.97 4.475 -5 7 C-5.66 6.67 -6.32 6.34 -7 6 C-6 3 -6 3 -2.9375 1.3125 C-1.968125 0.879375 -0.99875 0.44625 0 0 Z " fill="#060B14" transform="translate(468,542)"/>
<path d="M0 0 C0.99 0.33 1.98 0.66 3 1 C2.30058404 4.14737182 1.23921302 7.02588876 0 10 C-0.33 10 -0.66 10 -1 10 C-0.67 6.7 -0.34 3.4 0 0 Z " fill="#E2E3E5" transform="translate(649,296)"/>
<path d="M0 0 C0.66 0 1.32 0 2 0 C1.01 3.3 0.02 6.6 -1 10 C-1.66 10 -2.32 10 -3 10 C-2.39009109 6.44219804 -1.4216319 3.3171411 0 0 Z " fill="#E2E4E7" transform="translate(516,791)"/>
<path d="M0 0 C1.4384798 0.06423833 2.87666999 0.14163547 4.3125 0.25 C1.45771674 2.15318884 -0.10691308 2.7119099 -3.375 3.375 C-4.18324219 3.54257812 -4.99148438 3.71015625 -5.82421875 3.8828125 C-6.43910156 4.00398437 -7.05398438 4.12515625 -7.6875 4.25 C-5.84004374 0.30875998 -4.09551026 -0.02575793 0 0 Z " fill="#172642" transform="translate(280.6875,508.75)"/>
<path d="M0 0 C2.31 0 4.62 0 7 0 C6.67 1.32 6.34 2.64 6 4 C3.83125748 3.49396008 2.00032373 3.00016187 0 2 C0 1.34 0 0.68 0 0 Z " fill="#0B0E19" transform="translate(509,459)"/>
<path d="M0 0 C1.23556641 0.01740234 1.23556641 0.01740234 2.49609375 0.03515625 C3.32238281 0.04417969 4.14867187 0.05320312 5 0.0625 C5.63808594 0.07410156 6.27617187 0.08570313 6.93359375 0.09765625 C6.60359375 1.08765625 6.27359375 2.07765625 5.93359375 3.09765625 C2.55859375 3.22265625 2.55859375 3.22265625 -1.06640625 3.09765625 C-1.72640625 2.43765625 -2.38640625 1.77765625 -3.06640625 1.09765625 C-2.06640625 0.09765625 -2.06640625 0.09765625 0 0 Z " fill="#232C41" transform="translate(472.06640625,305.90234375)"/>
<path d="M0 0 C2.46278801 2.46278801 2.99771255 4.70676982 4 8 C2.68 7.67 1.36 7.34 0 7 C-0.38133299 5.0085944 -0.71325582 3.00720923 -1 1 C-0.67 0.67 -0.34 0.34 0 0 Z " fill="#EDEFF0" transform="translate(395,740)"/>
<path d="M0 0 C0.99 0.33 1.98 0.66 3 1 C2.67 2.32 2.34 3.64 2 5 C0.02 5.33 -1.96 5.66 -4 6 C-3.67 5.34 -3.34 4.68 -3 4 C-2.01 4 -1.02 4 0 4 C0 2.68 0 1.36 0 0 Z " fill="#0F1122" transform="translate(513,443)"/>
<path d="M0 0 C0 0.99 0 1.98 0 3 C-2.5 5.1875 -2.5 5.1875 -5 7 C-5.33 6.01 -5.66 5.02 -6 4 C-4.03617993 2.49440461 -2.21736634 1.10868317 0 0 Z " fill="#263045" transform="translate(341,437)"/>
<path d="M0 0 C1.65 1.65 3.3 3.3 5 5 C4.67 5.99 4.34 6.98 4 8 C3.34 8 2.68 8 2 8 C0.74335022 5.09399739 0 3.20395416 0 0 Z " fill="#EBEDEE" transform="translate(455,822)"/>
<path d="M0 0 C1.65 0.33 3.3 0.66 5 1 C2.63707344 3.52588702 1.33537489 4.88820837 -2 6 C-1.34 4.02 -0.68 2.04 0 0 Z " fill="#F0F0F1" transform="translate(368,806)"/>
<path d="M0 0 C1.39195915 4.17587745 -0.17676781 6.13474776 -2 10 C-2.33 10 -2.66 10 -3 10 C-3 7.69 -3 5.38 -3 3 C-2.34 3 -1.68 3 -1 3 C-0.67 2.01 -0.34 1.02 0 0 Z " fill="#EAEBED" transform="translate(354,774)"/>
<path d="M0 0 C-1.45381897 0.69699552 -2.91322953 1.38233866 -4.375 2.0625 C-5.18710938 2.44535156 -5.99921875 2.82820312 -6.8359375 3.22265625 C-7.55007812 3.47917969 -8.26421875 3.73570312 -9 4 C-9.66 3.67 -10.32 3.34 -11 3 C-7.17860188 -0.1390056 -4.83859894 -1.61286631 0 0 Z " fill="#030409" transform="translate(228,614)"/>
<path d="M0 0 C0.99 0.33 1.98 0.66 3 1 C2.0409375 2.1446875 2.0409375 2.1446875 1.0625 3.3125 C-1.14232781 5.88246713 -1.14232781 5.88246713 -2 9 C-2.66 8.67 -3.32 8.34 -4 8 C-3.40072174 4.64404172 -2.15377564 2.62198774 0 0 Z " fill="#1A2A45" transform="translate(632,228)"/>
<path d="M0 0 C0.33 0.99 0.66 1.98 1 3 C-0.4800841 2.88637738 -1.95910074 2.75877092 -3.4375 2.625 C-4.26121094 2.55539063 -5.08492187 2.48578125 -5.93359375 2.4140625 C-6.61550781 2.27742187 -7.29742188 2.14078125 -8 2 C-8.33 1.34 -8.66 0.68 -9 0 C-5.67465243 -1.10844919 -3.37817425 -0.84454356 0 0 Z " fill="#1B253F" transform="translate(703,222)"/>
<path d="M0 0 C0.7425 0.185625 1.485 0.37125 2.25 0.5625 C4.94990963 0.99203108 6.44631077 0.85122974 9 0 C9.33 0.99 9.66 1.98 10 3 C3.47692308 3.36923077 3.47692308 3.36923077 1.0625 1.5 C0.5365625 0.7575 0.5365625 0.7575 0 0 Z " fill="#0C0D1D" transform="translate(455,504)"/>
</svg>
